<?xml version="1.0" standalone="no"?>
<!DOCTYPE svg PUBLIC "-//W3C//DTD SVG 20010904//EN"
 "http://www.w3.org/TR/2001/REC-SVG-20010904/DTD/svg10.dtd">
<svg version="1.0" xmlns="http://www.w3.org/2000/svg"
 width="700.000000pt" height="700.000000pt" viewBox="0 0 700.000000 700.000000"
 preserveAspectRatio="xMidYMid meet">
<metadata>
Created by potrace 1.14, written by Peter Selinger 2001-2017
</metadata>
<g transform="translate(0.000000,700.000000) scale(0.100000,-0.100000)"
fill="#000000" stroke="none">
<path d="M780 6993 c-375 -64 -691 -368 -765 -738 -14 -72 -15 -339 -13 -2790
l3 -2710 23 -73 c54 -169 136 -304 254 -418 116 -113 237 -184 400 -236 l73
-23 2710 -3 c2990 -3 2776 -7 2944 59 267 106 470 330 563 621 l23 73 3 2710
c2 2446 1 2718 -13 2790 -60 298 -282 565 -569 681 -171 69 53 64 -2923 63
-1478 -1 -2699 -4 -2713 -6z m2097 -2050 c-4 -43 -9 -140 -13 -215 l-7 -138
-618 0 -619 0 0 -395 0 -395 590 0 590 0 0 -215 0 -215 -590 0 -590 0 0 -455
0 -455 642 0 641 0 -6 -152 c-4 -83 -7 -182 -7 -220 l0 -68 -910 0 -910 0 0
1500 0 1500 906 0 907 0 -6 -77z m1602 -647 c118 -22 221 -51 326 -93 50 -19
91 -36 92 -38 2 -1 -26 -82 -61 -181 -42 -117 -69 -178 -78 -177 -7 1 -52 18
-100 37 -314 129 -666 136 -792 18 -54 -51 -72 -144 -42 -215 33 -76 149 -142
446 -252 380 -140 553 -257 633 -427 47 -100 60 -163 59 -293 -1 -203 -54
-338 -183 -466 -178 -178 -451 -249 -846 -221 -245 18 -431 61 -576 134 -50
25 -58 33 -54 51 3 12 16 100 28 195 13 94 26 172 30 172 3 0 40 -15 81 -34
180 -82 390 -134 575 -143 191 -9 301 18 377 93 69 69 86 180 41 271 -45 89
-152 150 -480 273 -170 63 -326 143 -419 212 -166 124 -237 292 -223 528 9
158 61 273 166 373 106 100 247 162 435 193 107 18 449 12 565 -10z m1269
-1716 c60 -27 116 -81 150 -145 23 -43 27 -62 27 -140 0 -81 -3 -95 -30 -144
-63 -115 -160 -167 -294 -159 -89 5 -138 27 -198 88 -202 202 -43 549 240 525
33 -3 80 -14 105 -25z"/>
</g>
</svg>
